# xmcd CD database file
#
# Track frame offsets:
#	150
#	13124
#	25045
#	39478
#	52793
#	66569
#	80797
#	90644
#	104936
#	119356
#	131794
#	143725
#	157126
#	169823
#	182267
#	195016
#
# Disc length: 2770 seconds
#
# Revision: 0
# Processed by: cddbd v1.5.2PL0 Copyright (c) Steve Scherf et al.
# Submitted via: CDex 1.70beta2
#
DISCID=d90ad010
DTITLE=Nat King Cole - Top Pops
DYEAR=1900
DGENRE=Jazz
TTITLE0=Somewhere Along The Way
TTITLE1=Walkin' My Baby Back Home
TTITLE2=Faith Can Move Mountains
TTITLE3=Funny
TTITLE4=Hold My Hand
TTITLE5=Teach Me Tonight
TTITLE6=I'm Never Satisfied
TTITLE7=Because You're Mine
TTITLE8=The Ruby And The Pearl
TTITLE9=A Weaver Of Dreams
TTITLE10=Papa Loves Mambo
TTITLE11=If I Give My Heart To You
TTITLE12=Bonus Track: You Will Never Grow Old
TTITLE13=Bonus Track: How (How Do I Go About It?)
TTITLE14=Bonus Track: When I'm Alone
TTITLE15=Bonus Track: A Fool Was I
EXTD=
EXTT0=
EXTT1=
EXTT2=
EXTT3=
EXTT4=
EXTT5=
EXTT6=
EXTT7=
EXTT8=
EXTT9=
EXTT10=
EXTT11=
EXTT12=
EXTT13=
EXTT14=
EXTT15=
PLAYORDER=
